<svg width="88" height="14" viewBox="0 0 88 14" fill="none" xmlns="http://www.w3.org/2000/svg">
<path d="M87.2422 6L82.9995 10.2426L78.7569 6" stroke="#070C11" stroke-linecap="round" stroke-linejoin="round"/>
<path d="M6.82577 1.32741C6.90227 1.19168 7.09773 1.19168 7.17423 1.32741L8.62894 3.90833C8.80018 4.21214 9.09512 4.42643 9.43698 4.4954L12.3411 5.08137C12.4938 5.11219 12.5542 5.29808 12.4488 5.41278L10.4437 7.59384C10.2077 7.85058 10.095 8.1973 10.1351 8.54374L10.4752 11.4868C10.4931 11.6416 10.335 11.7565 10.1933 11.6916L7.4994 10.4587C7.18228 10.3135 6.81772 10.3135 6.50061 10.4587L3.80669 11.6916C3.66502 11.7565 3.50689 11.6416 3.52478 11.4868L3.86492 8.54375C3.90496 8.1973 3.7923 7.85058 3.55627 7.59384L1.55121 5.41278C1.44576 5.29808 1.50616 5.11219 1.65889 5.08137L4.56302 4.4954C4.90488 4.42643 5.19982 4.21214 5.37106 3.90833L6.82577 1.32741Z" fill="#1169FF" stroke="#1169FF" stroke-linecap="round" stroke-linejoin="round"/>
<path d="M21.8258 1.32741C21.9023 1.19168 22.0977 1.19168 22.1742 1.32741L23.6289 3.90833C23.8002 4.21214 24.0951 4.42643 24.437 4.4954L27.3411 5.08137C27.4938 5.11219 27.5542 5.29808 27.4488 5.41278L25.4437 7.59384C25.2077 7.85058 25.095 8.1973 25.1351 8.54374L25.4752 11.4868C25.4931 11.6416 25.335 11.7565 25.1933 11.6916L22.4994 10.4587C22.1823 10.3135 21.8177 10.3135 21.5006 10.4587L18.8067 11.6916C18.665 11.7565 18.5069 11.6416 18.5248 11.4868L18.8649 8.54375C18.905 8.1973 18.7923 7.85058 18.5563 7.59384L16.5512 5.41278C16.4458 5.29808 16.5062 5.11219 16.6589 5.08137L19.563 4.4954C19.9049 4.42643 20.1998 4.21214 20.3711 3.90833L21.8258 1.32741Z" fill="#1169FF" stroke="#1169FF" stroke-linecap="round" stroke-linejoin="round"/>
<path d="M36.8258 1.32741C36.9023 1.19168 37.0977 1.19168 37.1742 1.32741L38.6289 3.90833C38.8002 4.21214 39.0951 4.42643 39.437 4.4954L42.3411 5.08137C42.4938 5.11219 42.5542 5.29808 42.4488 5.41278L40.4437 7.59384C40.2077 7.85058 40.095 8.1973 40.1351 8.54374L40.4752 11.4868C40.4931 11.6416 40.335 11.7565 40.1933 11.6916L37.4994 10.4587C37.1823 10.3135 36.8177 10.3135 36.5006 10.4587L33.8067 11.6916C33.665 11.7565 33.5069 11.6416 33.5248 11.4868L33.8649 8.54375C33.905 8.1973 33.7923 7.85058 33.5563 7.59384L31.5512 5.41278C31.4458 5.29808 31.5062 5.11219 31.6589 5.08137L34.563 4.4954C34.9049 4.42643 35.1998 4.21214 35.3711 3.90833L36.8258 1.32741Z" fill="#1169FF" stroke="#1169FF" stroke-linecap="round" stroke-linejoin="round"/>
<path d="M51.8258 1.32741C51.9023 1.19168 52.0977 1.19168 52.1742 1.32741L53.6289 3.90833C53.8002 4.21214 54.0951 4.42643 54.437 4.4954L57.3411 5.08137C57.4938 5.11219 57.5542 5.29808 57.4488 5.41278L55.4437 7.59384C55.2077 7.85058 55.095 8.1973 55.1351 8.54374L55.4752 11.4868C55.4931 11.6416 55.335 11.7565 55.1933 11.6916L52.4994 10.4587C52.1823 10.3135 51.8177 10.3135 51.5006 10.4587L48.8067 11.6916C48.665 11.7565 48.5069 11.6416 48.5248 11.4868L48.8649 8.54375C48.905 8.1973 48.7923 7.85058 48.5563 7.59384L46.5512 5.41278C46.4458 5.29808 46.5062 5.11219 46.6589 5.08137L49.563 4.4954C49.9049 4.42643 50.1998 4.21214 50.3711 3.90833L51.8258 1.32741Z" fill="#1169FF" stroke="#1169FF" stroke-linecap="round" stroke-linejoin="round"/>
<mask id="mask0" mask-type="alpha" maskUnits="userSpaceOnUse" x="61" y="0" width="14" height="13">
<path d="M67.8258 1.32741C67.9023 1.19168 68.0977 1.19168 68.1742 1.32741L69.6289 3.90833C69.8002 4.21214 70.0951 4.42643 70.437 4.4954L73.3411 5.08137C73.4938 5.11219 73.5542 5.29808 73.4488 5.41278L71.4437 7.59384C71.2077 7.85058 71.095 8.1973 71.1351 8.54374L71.4752 11.4868C71.4931 11.6416 71.335 11.7565 71.1933 11.6916L68.4994 10.4587C68.1823 10.3135 67.8177 10.3135 67.5006 10.4587L64.8067 11.6916C64.665 11.7565 64.5069 11.6416 64.5248 11.4868L64.8649 8.54375C64.905 8.1973 64.7923 7.85058 64.5563 7.59384L62.5512 5.41278C62.4458 5.29808 62.5062 5.11219 62.6589 5.08137L65.563 4.4954C65.9049 4.42643 66.1998 4.21214 66.3711 3.90833L67.8258 1.32741Z" fill="#455A64" stroke="#455A64" stroke-linecap="round" stroke-linejoin="round"/>
</mask>
<g mask="url(#mask0)">
<rect x="61.5" y="-0.5" width="7" height="14" fill="#1169FF" stroke="#1169FF" stroke-linecap="round" stroke-linejoin="round"/>
</g>
</svg>
