<svg width="67" height="24" viewBox="0 0 67 24" fill="none" xmlns="http://www.w3.org/2000/svg">
<g opacity="0.6">
<rect x="65.8423" y="23.0287" width="65.518" height="22.7042" rx="3.87145" transform="rotate(-180 65.8423 23.0287)" stroke="#538FFF" stroke-width="0.648693"/>
<path d="M66.1666 19.1572C66.1666 21.4745 64.2881 23.353 61.9708 23.353H24.6503V8.7738e-05H61.9708C64.2881 8.7738e-05 66.1666 1.87861 66.1666 4.19589V19.1572Z" fill="#538FFF"/>
<path fill-rule="evenodd" clip-rule="evenodd" d="M3.88831 18.84L12.6334 3.89258L21.3786 18.84H3.88831ZM12.5475 10.2802C11.9195 10.2802 11.4171 10.7826 11.4171 11.4105V12.3316H13.6778V11.4105C13.6778 10.7826 13.1754 10.2802 12.5475 10.2802ZM14.5988 16.4553H10.4856C10.3181 16.4553 10.1821 16.3087 10.1821 16.1308V12.6351C10.1821 12.4676 10.3181 12.3316 10.4856 12.3316H10.7996V11.4105C10.7996 10.4477 11.5846 9.66268 12.5475 9.66268C13.5103 9.66268 14.2953 10.4476 14.2953 11.421V12.342H14.5988C14.7663 12.342 14.9024 12.4781 14.9024 12.6456V16.1518C14.9024 16.3192 14.7663 16.4553 14.5988 16.4553Z" fill="#538FFF"/>
<path d="M30.0878 8.22809V9.18945H29.5818V8.23587L28.5115 6.46494H29.0525L29.8504 7.79217L30.6561 6.46494H31.1543L30.0878 8.22809ZM32.6405 9.22837C32.3629 9.22837 32.1125 9.16869 31.8893 9.04934C31.6662 8.92738 31.491 8.76002 31.3639 8.54725C31.2367 8.33188 31.1732 8.09187 31.1732 7.8272C31.1732 7.56253 31.2367 7.32381 31.3639 7.11104C31.491 6.89568 31.6662 6.72831 31.8893 6.60895C32.1125 6.487 32.3629 6.42602 32.6405 6.42602C32.9182 6.42602 33.1685 6.487 33.3917 6.60895C33.6148 6.72831 33.79 6.89438 33.9171 7.10715C34.0443 7.31992 34.1079 7.55994 34.1079 7.8272C34.1079 8.09446 34.0443 8.33448 33.9171 8.54725C33.79 8.76002 33.6148 8.92738 33.3917 9.04934C33.1685 9.16869 32.9182 9.22837 32.6405 9.22837ZM32.6405 8.78467C32.8221 8.78467 32.9856 8.74445 33.1309 8.66401C33.2762 8.58098 33.3904 8.46681 33.4734 8.3215C33.5565 8.1736 33.598 8.00883 33.598 7.8272C33.598 7.64556 33.5565 7.48209 33.4734 7.33679C33.3904 7.18888 33.2762 7.07471 33.1309 6.99428C32.9856 6.91124 32.8221 6.86973 32.6405 6.86973C32.4589 6.86973 32.2954 6.91124 32.1501 6.99428C32.0048 7.07471 31.8906 7.18888 31.8076 7.33679C31.7246 7.48209 31.683 7.64556 31.683 7.8272C31.683 8.00883 31.7246 8.1736 31.8076 8.3215C31.8906 8.46681 32.0048 8.58098 32.1501 8.66401C32.2954 8.74445 32.4589 8.78467 32.6405 8.78467ZM35.8157 9.22837C35.4395 9.22837 35.1463 9.12329 34.9361 8.91311C34.7259 8.70034 34.6208 8.39675 34.6208 8.00235V6.46494H35.1268V7.98288C35.1268 8.51741 35.3577 8.78467 35.8196 8.78467C36.2789 8.78467 36.5085 8.51741 36.5085 7.98288V6.46494H37.0067V8.00235C37.0067 8.39675 36.9016 8.70034 36.6915 8.91311C36.4839 9.12329 36.192 9.22837 35.8157 9.22837ZM39.4979 9.18945L38.9414 8.39156C38.918 8.39416 38.883 8.39545 38.8363 8.39545H38.2213V9.18945H37.7153V6.46494H38.8363C39.0724 6.46494 39.2774 6.50387 39.4512 6.58171C39.6277 6.65955 39.7626 6.77113 39.856 6.91643C39.9494 7.06174 39.9961 7.23429 39.9961 7.43409C39.9961 7.63908 39.9455 7.81552 39.8443 7.96342C39.7457 8.11133 39.603 8.2216 39.4162 8.29426L40.0428 9.18945H39.4979ZM39.4863 7.43409C39.4863 7.26024 39.4292 7.12661 39.315 7.0332C39.2008 6.93979 39.0335 6.89308 38.8129 6.89308H38.2213V7.97899H38.8129C39.0335 7.97899 39.2008 7.93229 39.315 7.83887C39.4292 7.74287 39.4863 7.60794 39.4863 7.43409ZM42.7588 6.46494C42.995 6.46494 43.1999 6.50387 43.3738 6.58171C43.5502 6.65955 43.6852 6.77113 43.7786 6.91643C43.872 7.06174 43.9187 7.23429 43.9187 7.43409C43.9187 7.63129 43.872 7.80385 43.7786 7.95175C43.6852 8.09705 43.5502 8.20863 43.3738 8.28647C43.1999 8.36432 42.995 8.40324 42.7588 8.40324H42.1439V9.18945H41.6379V6.46494H42.7588ZM42.7355 7.9751C42.956 7.9751 43.1234 7.92839 43.2376 7.83498C43.3517 7.74157 43.4088 7.60794 43.4088 7.43409C43.4088 7.26024 43.3517 7.12661 43.2376 7.0332C43.1234 6.93979 42.956 6.89308 42.7355 6.89308H42.1439V7.9751H42.7355ZM46.0542 8.55892H44.6919L44.4234 9.18945H43.9018L45.1279 6.46494H45.6261L46.856 9.18945H46.3266L46.0542 8.55892ZM45.8868 8.16192L45.3731 6.97092L44.8632 8.16192H45.8868ZM48.2145 8.22809V9.18945H47.7085V8.23587L46.6381 6.46494H47.1791L47.977 7.79217L48.7827 6.46494H49.2809L48.2145 8.22809ZM52.0769 9.18945L52.073 7.38349L51.1778 8.87808H50.9521L50.0569 7.40685V9.18945H49.5742V6.46494H49.9907L51.0727 8.2709L52.1353 6.46494H52.5517L52.5556 9.18945H52.0769ZM55.3349 8.76521V9.18945H53.2916V6.46494H55.2805V6.88919H53.7975V7.59756H55.1131V8.01402H53.7975V8.76521H55.3349ZM58.3199 6.46494V9.18945H57.9035L56.4011 7.34457V9.18945H55.899V6.46494H56.3155L57.8178 8.30983V6.46494H58.3199ZM59.6027 6.89308H58.6997V6.46494H61.0116V6.89308H60.1086V9.18945H59.6027V6.89308ZM28.9124 12.4649H29.4184V15.1895H28.9124V12.4649ZM30.9999 15.2284C30.7897 15.2284 30.586 15.1985 30.3888 15.1389C30.1942 15.0792 30.0398 15 29.9256 14.9014L30.1008 14.5083C30.2124 14.5965 30.3486 14.6692 30.5095 14.7263C30.6729 14.7808 30.8364 14.808 30.9999 14.808C31.2023 14.808 31.3528 14.7756 31.4514 14.7107C31.5526 14.6458 31.6032 14.5602 31.6032 14.4538C31.6032 14.376 31.5746 14.3124 31.5175 14.2631C31.463 14.2112 31.393 14.171 31.3074 14.1425C31.2217 14.1139 31.105 14.0815 30.9571 14.0452C30.7495 13.9959 30.5808 13.9466 30.4511 13.8973C30.3239 13.848 30.2137 13.7714 30.1202 13.6676C30.0294 13.5612 29.984 13.4185 29.984 13.2395C29.984 13.089 30.0242 12.9528 30.1047 12.8308C30.1877 12.7063 30.311 12.6077 30.4744 12.535C30.6405 12.4623 30.8429 12.426 31.0816 12.426C31.2477 12.426 31.4111 12.4468 31.572 12.4883C31.7329 12.5298 31.8717 12.5895 31.9885 12.6673L31.8289 13.0604C31.7095 12.9904 31.585 12.9372 31.4553 12.9009C31.3255 12.8645 31.1997 12.8464 31.0777 12.8464C30.8779 12.8464 30.7287 12.8801 30.6301 12.9476C30.5341 13.015 30.4861 13.1046 30.4861 13.2161C30.4861 13.294 30.5134 13.3575 30.5678 13.4068C30.6249 13.4561 30.6963 13.4951 30.7819 13.5236C30.8675 13.5522 30.9843 13.5846 31.1322 13.6209C31.3346 13.6676 31.5007 13.7169 31.6304 13.7688C31.7601 13.8181 31.8704 13.8947 31.9612 13.9985C32.0546 14.1022 32.1014 14.2424 32.1014 14.4188C32.1014 14.5693 32.0598 14.7055 31.9768 14.8275C31.8964 14.9494 31.7731 15.0467 31.6071 15.1194C31.441 15.192 31.2386 15.2284 30.9999 15.2284ZM34.426 12.4649V15.1895H33.9201V12.8892H33.344V12.4649H34.426ZM36.103 15.2284C35.885 15.2284 35.6904 15.1739 35.5192 15.0649C35.3479 14.9533 35.213 14.7925 35.1144 14.5823C35.0158 14.3695 34.9665 14.1178 34.9665 13.8272C34.9665 13.5366 35.0158 13.2862 35.1144 13.076C35.213 12.8632 35.3479 12.7024 35.5192 12.5934C35.6904 12.4818 35.885 12.426 36.103 12.426C36.321 12.426 36.5156 12.4818 36.6868 12.5934C36.8607 12.7024 36.9969 12.8632 37.0955 13.076C37.1941 13.2862 37.2434 13.5366 37.2434 13.8272C37.2434 14.1178 37.1941 14.3695 37.0955 14.5823C36.9969 14.7925 36.8607 14.9533 36.6868 15.0649C36.5156 15.1739 36.321 15.2284 36.103 15.2284ZM36.103 14.7886C36.2976 14.7886 36.4507 14.7081 36.5623 14.5472C36.6765 14.3864 36.7335 14.1464 36.7335 13.8272C36.7335 13.508 36.6765 13.268 36.5623 13.1071C36.4507 12.9463 36.2976 12.8658 36.103 12.8658C35.911 12.8658 35.7579 12.9463 35.6437 13.1071C35.5322 13.268 35.4764 13.508 35.4764 13.8272C35.4764 14.1464 35.5322 14.3864 35.6437 14.5472C35.7579 14.7081 35.911 14.7886 36.103 14.7886ZM38.7219 15.2284C38.5039 15.2284 38.3093 15.1739 38.138 15.0649C37.9668 14.9533 37.8318 14.7925 37.7332 14.5823C37.6346 14.3695 37.5853 14.1178 37.5853 13.8272C37.5853 13.5366 37.6346 13.2862 37.7332 13.076C37.8318 12.8632 37.9668 12.7024 38.138 12.5934C38.3093 12.4818 38.5039 12.426 38.7219 12.426C38.9398 12.426 39.1344 12.4818 39.3057 12.5934C39.4795 12.7024 39.6158 12.8632 39.7144 13.076C39.813 13.2862 39.8623 13.5366 39.8623 13.8272C39.8623 14.1178 39.813 14.3695 39.7144 14.5823C39.6158 14.7925 39.4795 14.9533 39.3057 15.0649C39.1344 15.1739 38.9398 15.2284 38.7219 15.2284ZM38.7219 14.7886C38.9165 14.7886 39.0696 14.7081 39.1811 14.5472C39.2953 14.3864 39.3524 14.1464 39.3524 13.8272C39.3524 13.508 39.2953 13.268 39.1811 13.1071C39.0696 12.9463 38.9165 12.8658 38.7219 12.8658C38.5298 12.8658 38.3767 12.9463 38.2626 13.1071C38.151 13.268 38.0952 13.508 38.0952 13.8272C38.0952 14.1464 38.151 14.3864 38.2626 14.5472C38.3767 14.7081 38.5298 14.7886 38.7219 14.7886ZM40.8114 13.9323C40.6168 13.9323 40.4598 13.8635 40.3404 13.726C40.2211 13.5885 40.1614 13.4081 40.1614 13.185C40.1614 12.9618 40.2211 12.7815 40.3404 12.644C40.4598 12.5065 40.6168 12.4377 40.8114 12.4377C41.006 12.4377 41.163 12.5065 41.2823 12.644C41.4043 12.7789 41.4652 12.9592 41.4652 13.185C41.4652 13.4107 41.4043 13.5924 41.2823 13.7299C41.163 13.8648 41.006 13.9323 40.8114 13.9323ZM42.4461 12.4649H42.8275L40.967 15.1895H40.5856L42.4461 12.4649ZM40.8114 13.6598C40.9177 13.6598 40.9995 13.6183 41.0566 13.5353C41.1162 13.4523 41.1461 13.3355 41.1461 13.185C41.1461 13.0345 41.1162 12.9177 41.0566 12.8347C40.9995 12.7517 40.9177 12.7101 40.8114 12.7101C40.7102 12.7101 40.6284 12.753 40.5662 12.8386C40.5065 12.9216 40.4766 13.0371 40.4766 13.185C40.4766 13.3329 40.5065 13.4497 40.5662 13.5353C40.6284 13.6183 40.7102 13.6598 40.8114 13.6598ZM42.5979 15.2167C42.4033 15.2167 42.2463 15.1479 42.1269 15.0104C42.0076 14.8729 41.9479 14.6926 41.9479 14.4694C41.9479 14.2463 42.0076 14.0659 42.1269 13.9284C42.2463 13.7909 42.4033 13.7221 42.5979 13.7221C42.7925 13.7221 42.9495 13.7909 43.0688 13.9284C43.1908 14.0659 43.2517 14.2463 43.2517 14.4694C43.2517 14.6926 43.1908 14.8729 43.0688 15.0104C42.9495 15.1479 42.7925 15.2167 42.5979 15.2167ZM42.5979 14.9442C42.7017 14.9442 42.7834 14.9027 42.8431 14.8197C42.9027 14.7341 42.9326 14.6173 42.9326 14.4694C42.9326 14.3215 42.9027 14.206 42.8431 14.123C42.7834 14.0374 42.7017 13.9946 42.5979 13.9946C42.4941 13.9946 42.4123 14.0361 42.3527 14.1191C42.293 14.2021 42.2631 14.3189 42.2631 14.4694C42.2631 14.6199 42.293 14.7367 42.3527 14.8197C42.4123 14.9027 42.4941 14.9442 42.5979 14.9442ZM45.6677 15.2284C45.4575 15.2284 45.2538 15.1985 45.0566 15.1389C44.862 15.0792 44.7076 15 44.5934 14.9014L44.7686 14.5083C44.8802 14.5965 45.0164 14.6692 45.1773 14.7263C45.3407 14.7808 45.5042 14.808 45.6677 14.808C45.8701 14.808 46.0206 14.7756 46.1192 14.7107C46.2204 14.6458 46.271 14.5602 46.271 14.4538C46.271 14.376 46.2424 14.3124 46.1853 14.2631C46.1308 14.2112 46.0608 14.171 45.9752 14.1425C45.8895 14.1139 45.7728 14.0815 45.6249 14.0452C45.4173 13.9959 45.2486 13.9466 45.1189 13.8973C44.9917 13.848 44.8815 13.7714 44.7881 13.6676C44.6972 13.5612 44.6518 13.4185 44.6518 13.2395C44.6518 13.089 44.692 12.9528 44.7725 12.8308C44.8555 12.7063 44.9788 12.6077 45.1422 12.535C45.3083 12.4623 45.5107 12.426 45.7494 12.426C45.9155 12.426 46.0789 12.4468 46.2398 12.4883C46.4007 12.5298 46.5395 12.5895 46.6563 12.6673L46.4967 13.0604C46.3773 12.9904 46.2528 12.9372 46.1231 12.9009C45.9933 12.8645 45.8675 12.8464 45.7455 12.8464C45.5457 12.8464 45.3965 12.8801 45.2979 12.9476C45.2019 13.015 45.1539 13.1046 45.1539 13.2161C45.1539 13.294 45.1812 13.3575 45.2356 13.4068C45.2927 13.4561 45.3641 13.4951 45.4497 13.5236C45.5353 13.5522 45.6521 13.5846 45.8 13.6209C46.0024 13.6676 46.1685 13.7169 46.2982 13.7688C46.4279 13.8181 46.5382 13.8947 46.629 13.9985C46.7225 14.1022 46.7692 14.2424 46.7692 14.4188C46.7692 14.5693 46.7276 14.7055 46.6446 14.8275C46.5642 14.9494 46.4409 15.0467 46.2749 15.1194C46.1088 15.192 45.9064 15.2284 45.6677 15.2284ZM49.3143 14.7652V15.1895H47.2709V12.4649H49.2598V12.8892H47.7769V13.5976H49.0924V14.014H47.7769V14.7652H49.3143ZM51.128 15.2284C50.8529 15.2284 50.6038 15.1687 50.3807 15.0493C50.1601 14.9274 49.9863 14.76 49.8591 14.5472C49.7346 14.3345 49.6723 14.0945 49.6723 13.8272C49.6723 13.5599 49.7359 13.3199 49.863 13.1071C49.9902 12.8944 50.164 12.7283 50.3846 12.609C50.6077 12.487 50.8568 12.426 51.1319 12.426C51.355 12.426 51.5587 12.4649 51.7429 12.5428C51.9272 12.6206 52.0829 12.7335 52.21 12.8814L51.8831 13.1889C51.6859 12.9761 51.4432 12.8697 51.1552 12.8697C50.9684 12.8697 50.801 12.9112 50.6531 12.9943C50.5052 13.0747 50.3898 13.1876 50.3067 13.3329C50.2237 13.4782 50.1822 13.643 50.1822 13.8272C50.1822 14.0114 50.2237 14.1762 50.3067 14.3215C50.3898 14.4668 50.5052 14.581 50.6531 14.664C50.801 14.7444 50.9684 14.7847 51.1552 14.7847C51.4432 14.7847 51.6859 14.677 51.8831 14.4616L52.21 14.773C52.0829 14.9209 51.9259 15.0338 51.739 15.1116C51.5548 15.1895 51.3511 15.2284 51.128 15.2284ZM53.8473 15.2284C53.4711 15.2284 53.1779 15.1233 52.9677 14.9131C52.7575 14.7003 52.6525 14.3968 52.6525 14.0023V12.4649H53.1584V13.9829C53.1584 14.5174 53.3894 14.7847 53.8512 14.7847C54.3105 14.7847 54.5402 14.5174 54.5402 13.9829V12.4649H55.0383V14.0023C55.0383 14.3968 54.9333 14.7003 54.7231 14.9131C54.5155 15.1233 54.2236 15.2284 53.8473 15.2284ZM57.5296 15.1895L56.973 14.3916C56.9496 14.3942 56.9146 14.3955 56.8679 14.3955H56.2529V15.1895H55.747V12.4649H56.8679C57.104 12.4649 57.309 12.5039 57.4829 12.5817C57.6593 12.6596 57.7942 12.7711 57.8877 12.9164C57.9811 13.0617 58.0278 13.2343 58.0278 13.4341C58.0278 13.6391 57.9772 13.8155 57.876 13.9634C57.7774 14.1113 57.6347 14.2216 57.4478 14.2943L58.0745 15.1895H57.5296ZM57.5179 13.4341C57.5179 13.2602 57.4608 13.1266 57.3466 13.0332C57.2325 12.9398 57.0651 12.8931 56.8446 12.8931H56.2529V13.979H56.8446C57.0651 13.979 57.2325 13.9323 57.3466 13.8389C57.4608 13.7429 57.5179 13.6079 57.5179 13.4341ZM60.6372 14.7652V15.1895H58.5939V12.4649H60.5828V12.8892H59.0998V13.5976H60.4154V14.014H59.0998V14.7652H60.6372Z" fill="#1169FF"/>
</g>
</svg>
