<svg xmlns="http://www.w3.org/2000/svg" viewBox="0 0 145 40">
  <defs/>
  <path fill="#ffb914" d="M13.6 6.5L.5 29.2h26.2z"/>
  <path d="M13.6 26C9.4 26 6 21.4 6 21.4s3.4-4.6 7.6-4.6c4.2 0 7.6 4.6 7.6 4.6S17.8 26 13.6 26z"/>
  <ellipse cx="13.6" cy="21.4" fill="#ffb914" rx="3.2" ry="3.3"/>
  <circle cx="13.6" cy="21.4" r="1.9" fill="#1e41ff"/>
  <path fill="#fff" d="M37.6 16.8v4h7v2.8h-7v5.5H34V14h11.5v2.8h-7.9zm18.6 1.8c1 .9 1.5 2.2 1.5 3.9v6.7h-3.2v-1.5c-.6 1.1-1.8 1.6-3.6 1.6-.9 0-1.7-.2-2.3-.5-.7-.3-1.2-.7-1.5-1.3-.3-.5-.5-1.1-.5-1.8 0-1.1.4-1.9 1.2-2.6.8-.6 2.1-.9 3.8-.9h2.7c0-.7-.2-1.3-.7-1.7-.4-.4-1.1-.6-2-.6-.6 0-1.2.1-1.8.3-.6.2-1.1.5-1.5.8L47 18.7c.6-.4 1.4-.8 2.3-1 .9-.2 1.8-.4 2.7-.4 1.9 0 3.2.5 4.2 1.3zm-2.9 8.1c.4-.3.8-.7 1-1.2v-1.2H52c-1.4 0-2.1.5-2.1 1.4 0 .4.2.8.5 1 .3.3.8.4 1.4.4.6 0 1.1-.2 1.5-.4zm8.5 2.3c-.9-.2-1.7-.5-2.2-.9l1.1-2.4c.5.3 1.1.6 1.9.8.7.2 1.5.3 2.2.3 1.4 0 2.1-.4 2.1-1.1 0-.3-.2-.6-.6-.7-.4-.1-1-.3-1.8-.4-1-.1-1.7-.3-2.4-.5-.6-.2-1.2-.5-1.6-1-.5-.5-.7-1.2-.7-2 0-.7.2-1.4.6-2 .4-.6 1-1 1.9-1.3.8-.3 1.8-.5 2.9-.5.8 0 1.6.1 2.5.3.8.2 1.5.4 2 .7l-1.1 2.4c-1-.6-2.1-.9-3.4-.9-.7 0-1.3.1-1.6.3-.4.2-.5.5-.5.8 0 .4.2.6.6.8.4.1 1 .3 1.9.4 1 .2 1.7.3 2.3.5.6.2 1.1.5 1.6 1 .4.5.7 1.1.7 2 0 .7-.2 1.4-.7 1.9-.4.6-1.1 1-1.9 1.3-.8.3-1.8.5-3 .5-.9 0-1.9-.1-2.8-.3zm18-.4c-.3.2-.7.4-1.2.6-.5.1-1 .2-1.5.2-1.4 0-2.5-.4-3.2-1.1-.8-.7-1.1-1.7-1.1-3.1v-4.8H71v-2.6h1.8V15H76v2.8h2.9v2.6H76v4.8c0 .5.1.9.4 1.1.3.3.6.4 1.1.4.5 0 1-.1 1.4-.4l.9 2.3zm12.9-4.3h-8.8c.1.7.5 1.3 1.1 1.7.6.4 1.3.6 2.2.6.6 0 1.1-.1 1.6-.3.5-.2.9-.5 1.3-.9l1.8 2c-1.1 1.3-2.7 1.9-4.8 1.9-1.3 0-2.5-.3-3.5-.8s-1.8-1.2-2.3-2.1c-.5-.9-.8-1.9-.8-3.1 0-1.1.3-2.2.8-3.1.5-.9 1.3-1.6 2.2-2.1.9-.5 2-.8 3.2-.8 1.1 0 2.2.2 3.1.7.9.5 1.7 1.2 2.2 2.1.5.9.8 2 .8 3.2-.1.1-.1.4-.1 1zm-7.9-3.8c-.5.4-.8 1-1 1.8h5.7c-.1-.7-.4-1.3-1-1.8-.5-.4-1.2-.7-1.9-.7-.7.1-1.3.3-1.8.7zm15.1-2.7c.7-.3 1.5-.4 2.4-.4v3.1h-.8c-1 0-1.7.3-2.3.8-.5.5-.8 1.4-.8 2.4v5.5H95V17.5h3.2V19c.4-.5 1-1 1.7-1.2zm14.6-3.1c1 .4 1.8 1.1 2.3 1.9.5.8.8 1.8.8 2.9 0 1.1-.3 2.1-.8 2.9-.5.8-1.3 1.5-2.3 1.9-1 .4-2.2.7-3.5.7h-3.1v4.2h-3.5V14h6.6c1.3 0 2.5.2 3.5.7zm-1.3 6.7c.5-.5.8-1.1.8-1.9 0-.9-.3-1.5-.8-2s-1.4-.7-2.4-.7h-2.9v5.3h2.9c1.1 0 1.9-.2 2.4-.7zm15.4-2.8c1 .9 1.5 2.2 1.5 3.9v6.7h-3.2v-1.5c-.6 1.1-1.8 1.6-3.6 1.6-.9 0-1.7-.2-2.3-.5-.7-.3-1.2-.7-1.5-1.3-.3-.5-.5-1.1-.5-1.8 0-1.1.4-1.9 1.2-2.6.8-.6 2.1-.9 3.8-.9h2.7c0-.7-.2-1.3-.7-1.7-.4-.4-1.1-.6-2-.6-.6 0-1.2.1-1.8.3-.6.2-1.1.5-1.5.8l-1.2-2.4c.6-.4 1.4-.8 2.3-1 .9-.2 1.8-.4 2.7-.4 1.8.1 3.1.6 4.1 1.4zm-2.9 8.1c.4-.3.8-.7 1-1.2v-1.2h-2.3c-1.4 0-2.1.5-2.1 1.4 0 .4.2.8.5 1 .3.3.8.4 1.4.4.6 0 1.1-.2 1.5-.4zm18.8-9.2l-5.3 12.4c-.5 1.3-1.2 2.3-2 2.8s-1.7.8-2.9.8c-.6 0-1.2-.1-1.8-.3-.6-.2-1.1-.4-1.5-.8l1.2-2.4c.3.2.6.4.9.5.3.1.7.2 1 .2.5 0 .8-.1 1.1-.3.3-.2.5-.6.8-1.1v-.1l-5.1-11.8h3.5l3.3 7.9 3.3-7.9h3.5z"/>
</svg>
